<svg id="Group_5890-1" data-name="Group 5890-1" xmlns="http://www.w3.org/2000/svg" xmlns:xlink="http://www.w3.org/1999/xlink" width="28" height="28" viewBox="0 0 28 28">
  <defs>
    <clipPath id="clip-path">
      <rect id="Rectangle_1229" data-name="Rectangle 1229" width="28" height="28" fill="none" stroke="#005087" stroke-width="1"/>
    </clipPath>
  </defs>
  <g id="Group_4575" data-name="Group 4575" clip-path="url(#clip-path)">
    <path id="Path_1286" data-name="Path 1286" d="M21.736,10.479a17.13,17.13,0,0,1-.871-3.7A15.288,15.288,0,0,1,21,5.148c-.858.09-1.824.18-2.294.181a9.419,9.419,0,0,1-3.129-.924l1.051-2.268A8.053,8.053,0,0,0,18.7,2.83c.566,0,2.519-.213,3.617-.346L23.7,3.923a27.926,27.926,0,0,0-.339,2.855A16.733,16.733,0,0,0,24.111,9.7Z" transform="translate(-1.506 2.572)" fill="#005087"/>
    <path id="Line_42" data-name="Line 42" d="M.884,9.345-.884,7.577,7.578-.884,9.345.884Z" transform="translate(11.396 7.403)" fill="#005087"/>
    <path id="Path_1287" data-name="Path 1287" d="M11.438,20.419A8.3,8.3,0,0,1,8.208,4.48l.974,2.3a5.8,5.8,0,1,0,7.7,7.342l2.346.863a8.3,8.3,0,0,1-7.788,5.431Z" transform="translate(1.804 1.905)" fill="#005087"/>
  </g>
</svg>
