<?xml version="1.0" encoding="utf-8"?>
<!-- Generator: Adobe Illustrator 27.7.0, SVG Export Plug-In . SVG Version: 6.00 Build 0)  -->
<svg version="1.1" id="Layer_1" xmlns="http://www.w3.org/2000/svg" xmlns:xlink="http://www.w3.org/1999/xlink" x="0px" y="0px"
	 viewBox="0 0 512 512" style="enable-background:new 0 0 512 512;" xml:space="preserve">
<style type="text/css">
	.st0{fill:#005087;}
</style>
<g>
	<path class="st0" d="M445.6,447.6h-22.7V252.2h20.6c5,0,9-4,9-9s-4-9-9-9h-20.6V124.6c0-5-4-9-9-9H264.3v-12.8h75.3c5,0,9-4,9-9
		V55.4c0-5-4-9-9-9h-84.3c-5,0-9,4-9,9v38.4v21.8H96.7c-5,0-9,4-9,9v109.6H66.4c-5,0-9,4-9,9s4,9,9,9h24.8v106c0,5,4,9,9,9s9-4,9-9
		v-106h29.5v195.3h-29.5v-39.3c0-5-4-9-9-9s-9,4-9,9v39.3H68.5c-5,0-9,4-9,9s4,9,9,9h31.7h47.5h62.3h94h62.3h47.5h31.7c5,0,9-4,9-9
		S450.6,447.6,445.6,447.6z M264.3,64.4h66.3v20.4h-66.3V64.4z M105.7,234.2V133.6h299.2v100.6h-38.5H147.7L105.7,234.2L105.7,234.2
		z M156.7,252.2h200.6v195.3H313V321.4c0-30.9-25.1-56-56-56s-56,25.1-56,56v126.2h-44.3L156.7,252.2L156.7,252.2z M295,321.4v5.8
		h-29v-42.7C282.7,288.6,295,303.6,295,321.4z M248.1,327.2h-29v-5.8c0-17.8,12.4-32.8,29-36.9V327.2z M219.1,345.2h29v40.6h-29
		V345.2z M266.1,345.2h29v40.6h-29V345.2z M219.1,403.8h29v43.8h-29V403.8z M266.1,447.6v-43.8h29v43.8H266.1z M375.4,447.6V252.2
		h29.5v195.3H375.4z"/>
	<path class="st0" d="M199,202.9v-38c0-5-4-9-9-9h-57c-5,0-9,4-9,9v38c0,5,4,9,9,9h57C195,211.9,199,207.9,199,202.9z M181,193.9
		h-39v-20h39V193.9z"/>
	<path class="st0" d="M226.8,211.9h57c5,0,9-4,9-9v-38c0-5-4-9-9-9h-57c-5,0-9,4-9,9v38C217.8,207.9,221.8,211.9,226.8,211.9z
		 M235.8,173.9h39v20h-39V173.9z"/>
	<path class="st0" d="M320.6,211.9h57c5,0,9-4,9-9v-38c0-5-4-9-9-9h-57c-5,0-9,4-9,9v38C311.6,207.9,315.6,211.9,320.6,211.9z
		 M329.6,173.9h39v20h-39V173.9z"/>
</g>
</svg>
