<?xml version="1.0" encoding="utf-8"?>
<!-- Generator: Adobe Illustrator 28.1.0, SVG Export Plug-In . SVG Version: 6.00 Build 0)  -->
<svg version="1.1" id="Layer_1" xmlns="http://www.w3.org/2000/svg" xmlns:xlink="http://www.w3.org/1999/xlink" x="0px" y="0px"
	 viewBox="0 0 91 91" style="enable-background:new 0 0 91 91;" xml:space="preserve">
<style type="text/css">
	.st0{fill:#005087;}
</style>
<g>
	<rect x="22.4" y="42.4" class="st0" width="4.8" height="8.8"/>
	<rect x="22.4" y="60.1" class="st0" width="4.8" height="8.8"/>
	<rect x="22.4" y="24.7" class="st0" width="4.8" height="8.8"/>
	<rect x="37.1" y="60.1" class="st0" width="4.8" height="8.8"/>
	<rect x="37.1" y="42.4" class="st0" width="4.8" height="8.8"/>
	<rect x="37.1" y="24.7" class="st0" width="4.8" height="8.8"/>
	<rect x="64.5" y="52.6" class="st0" width="9.4" height="4.8"/>
	<rect x="64.5" y="64.4" class="st0" width="9.4" height="4.8"/>
	<path class="st0" d="M58.1,83.3h17.2c5.2,0,9.5-4.3,9.5-9.5V38.7l-26.7,0v-31H6.2v75.6h47.1L58.1,83.3L58.1,83.3z M80,43.5v30.3
		c0,2.6-2.1,4.7-4.7,4.7H58.1v-35L80,43.5z M11,78.5v-66h42.3v26.2v39.8L11,78.5L11,78.5z"/>
</g>
</svg>
